<?xml version="1.0" encoding="UTF-8" standalone="no"?>
<svg
   version="1.1"
   width="297.0022mm"
   height="210.0072mm"
   viewBox="0.0000 0.0000 297.0022 210.0072"
   id="svg140"
   sodipodi:docname="NeoInfinity-Cut-Reduce.svg"
   inkscape:version="1.3.2 (091e20ef0f, 2023-11-25)"
   xmlns:inkscape="http://www.inkscape.org/namespaces/inkscape"
   xmlns:sodipodi="http://sodipodi.sourceforge.net/DTD/sodipodi-0.dtd"
   xmlns="http://www.w3.org/2000/svg"
   xmlns:svg="http://www.w3.org/2000/svg"
   xmlns:rdf="http://www.w3.org/1999/02/22-rdf-syntax-ns#"
   xmlns:cc="http://creativecommons.org/ns#"
   xmlns:dc="http://purl.org/dc/elements/1.1/">
  <defs
     id="defs140" />
  <sodipodi:namedview
     id="namedview140"
     pagecolor="#ffffff"
     bordercolor="#000000"
     borderopacity="0.25"
     inkscape:showpageshadow="2"
     inkscape:pageopacity="0.0"
     inkscape:pagecheckerboard="0"
     inkscape:deskcolor="#d1d1d1"
     inkscape:document-units="mm"
     inkscape:zoom="1.3286248"
     inkscape:cx="106.12477"
     inkscape:cy="204.34663"
     inkscape:window-width="1916"
     inkscape:window-height="1006"
     inkscape:window-x="0"
     inkscape:window-y="0"
     inkscape:window-maximized="0"
     inkscape:current-layer="svg140" />
  <title
     id="title1">SVG Image created as NeoInfinity-F_Paste.svg date 2024/12/14 19:27:52 </title>
  <desc
     id="desc1">Image generated by PCBNEW </desc>
  <rect
     style="fill:#ff0000;stroke-width:0.096;stroke-dasharray:none;stroke:none;fill-opacity:1"
     id="rect141"
     width="120.089"
     height="120.089"
     x="0"
     y="0" />
  <path
     style="display:inline;fill:none;fill-opacity:1;stroke:#000000;stroke-linecap:round;stroke-linejoin:round;stroke-opacity:1;stroke-width:0.1"
     d="m 105.8016,52.7749 0.6451,0.0305 0.2868,0.0224 0.2568,0.0276 0.5877,0.0805 0.5766,0.093 0.5661,0.1063 0.5559,0.1204 0.546,0.1355 0.5365,0.1515 0.5275,0.1683 0.5189,0.1861 0.5105,0.2047 0.5027,0.2243 0.4951,0.2447 0.4879,0.266 0.4813,0.2882 0.4748,0.3113 0.4689,0.3353 0.4632,0.3601 0.5925,0.4961 0.5694,0.5097 0.5459,0.5228 0.5217,0.5351 0.4973,0.5468 0.4722,0.5577 0.4467,0.5681 0.4207,0.5777 0.3943,0.5865 0.3674,0.5949 0.3399,0.6024 0.3121,0.6092 0.2836,0.6155 0.2548,0.6209 0.2255,0.6258 0.1957,0.6299 0.1623,0.6062 0.1499,0.6447 0.1338,0.6773 0.1139,0.7043 0.0904,0.7254 0.0353,0.3689 0.028,0.3719 0.0202,0.3744 0.0121,0.3761 0.003,0.3771 -0.006,0.3773 -0.0485,1.4915 -0.0335,0.6599 -0.0456,0.6284 -0.0624,0.6165 -0.0838,0.624 -0.1096,0.6509 -0.1402,0.6973 -0.113,0.4819 -0.1295,0.476 -0.1452,0.4703 -0.1603,0.4646 -0.1747,0.4591 -0.1886,0.4536 -0.2016,0.4482 -0.214,0.4428 -0.2259,0.4376 -0.237,0.4325 -0.2474,0.4273 -0.2573,0.4224 -0.5414,0.8301 -0.5727,0.8111 -0.238,0.3153 -0.2478,0.3095 -0.2565,0.3034 -0.2641,0.297 -0.2705,0.2902 -0.2757,0.2833 -0.2798,0.2758 -0.2828,0.2682 -0.2847,0.2602 -0.2853,0.2519 -0.5681,0.4776 -0.5571,0.4407 -0.537,0.4011 -0.3985,0.2819 -0.3956,0.2645 -0.3935,0.2477 -0.3923,0.2316 -0.3918,0.2162 -0.3923,0.2015 -0.3935,0.1874 -0.3957,0.1741 -0.3986,0.1613 -0.4024,0.1494 -0.407,0.138 -0.4125,0.1273 -0.4189,0.1173 -0.426,0.1079 -0.434,0.0994 -0.4428,0.0913 -0.2472,0.0428 -0.2816,0.039 -0.6483,0.0665 -0.7318,0.0514 -0.7789,0.0363 -0.79,0.0212 -0.7646,0.0062 -0.7032,-0.0087 -0.6056,-0.0237 -0.7036,-0.0572 -0.7708,-0.0933 -0.8131,-0.1254 -0.8302,-0.1536 -0.8223,-0.1777 -0.7893,-0.1978 -0.7314,-0.2141 -0.3361,-0.1118 -0.3123,-0.1144 -0.5912,-0.2359 -0.5934,-0.2516 -1.1858,-0.546 -1.172,-0.595 -1.1434,-0.6348 -1.0999,-0.665 -1.0414,-0.6859 -0.4941,-0.3478 -0.4739,-0.3496 -0.4519,-0.35 -0.4279,-0.3494 -0.3079,-0.2493 -0.303,-0.2548 -0.5929,-0.5238 -0.5785,-0.5396 -0.5677,-0.5514 -2.2342,-2.2442 -1.7405,-1.7048 -0.0044,-9e-4 -0.0078,0.0026 -0.0256,0.0152 -0.0383,0.0279 -0.0502,0.04 -0.0614,0.0515 -0.0719,0.0622 -0.1724,0.1542 -0.2059,0.1896 -0.2335,0.2196 -0.2554,0.2445 -0.2717,0.2643 -0.7641,0.7351 -0.7228,0.6717 -0.6715,0.6057 -0.61,0.5373 -0.9949,0.859 -0.3648,0.3166 -0.2627,0.2379 -0.2633,0.2359 -0.3284,0.2745 -0.3708,0.2981 -0.3904,0.3065 -1.3022,1.0104 -0.1582,0.1161 -0.253,0.1728 -0.3221,0.213 -0.3657,0.2367 -0.7586,0.4783 -0.3415,0.2087 -0.2821,0.1663 -0.8393,0.4584 -0.9127,0.4583 -0.9585,0.4465 -0.9766,0.4227 -0.9672,0.3871 -0.93,0.3398 -0.8654,0.2805 -0.3998,0.1144 -0.3733,0.0951 -0.4621,0.102 -0.4786,0.0915 -0.4933,0.0808 -0.5063,0.0701 -0.5175,0.0595 -0.5269,0.0489 -1.0749,0.0655 -1.0913,0.0226 -1.0934,-0.0205 -1.0814,-0.0638 -0.5317,-0.0481 -0.5234,-0.059 v 0 L 53.837,90.4425 53.21,90.3289 52.6239,90.2016 52.0751,90.0609 51.56,89.9072 51.0752,89.741 50.6171,89.5627 50.1821,89.3728 49.7668,89.1717 49.3675,88.9598 48.9807,88.7376 48.603,88.5056 47.8602,88.0136 47.1108,87.4873 46.9028,87.3312 46.679,87.1488 46.4426,86.9439 46.1966,86.7201 45.6882,86.2308 45.1783,85.7109 44.6915,85.1902 44.2522,84.6983 43.8851,84.2652 43.6147,83.9205 43.2531,83.4187 42.9464,82.9711 42.6849,82.566 42.4587,82.1916 42.2582,81.8364 42.0735,81.4887 41.7125,80.7689 41.5227,80.378 41.3395,79.9814 41.1617,79.5667 41.0744,79.3487 40.988,79.1216 40.9024,78.8837 40.8173,78.6336 40.7326,78.3697 40.6482,78.0904 40.5639,77.7942 40.4795,77.4795 40.395,77.1448 40.31,76.7885 40.1898,76.2161 40.087,75.6143 l -0.0858,-0.6266 -0.0688,-0.6465 -0.0523,-0.6619 -0.0359,-0.6725 -0.0199,-0.6785 -0.0039,-0.6797 0.0117,-0.6762 0.0271,-0.6681 0.0422,-0.6553 0.0572,-0.6377 0.0717,-0.6156 0.0862,-0.5886 0.1004,-0.557 0.1142,-0.5207 0.1126,-0.437 0.125,-0.4326 0.1372,-0.428 0.1491,-0.4234 0.1608,-0.4187 0.172,-0.4139 0.1832,-0.4091 0.1939,-0.4042 0.2045,-0.3993 0.2147,-0.3942 0.2246,-0.3891 0.2344,-0.3839 0.2437,-0.3787 0.2528,-0.3734 0.2617,-0.368 0.2702,-0.3626 0.3043,-0.3761 0.3857,-0.4625 0.4561,-0.5255 0.5152,-0.5651 0.2763,-0.29 0.2868,-0.2912 0.2961,-0.2894 0.3038,-0.2847 0.3103,-0.277 0.3152,-0.2664 0.3189,-0.2529 0.321,-0.2365 0.4631,-0.3173 0.4647,-0.2986 0.467,-0.2807 0.4699,-0.2632 0.4733,-0.2465 0.4774,-0.2302 0.4819,-0.2146 0.4872,-0.1996 0.493,-0.1853 0.4993,-0.1714 0.5063,-0.1583 0.5139,-0.1456 0.522,-0.1337 0.5307,-0.1223 0.54,-0.1115 0.5499,-0.1013 0.284,-0.0429 0.3143,-0.0363 0.7014,-0.0539 0.768,-0.0317 0.798,-0.0125 0.7912,0.0038 0.7479,0.0171 0.6679,0.0273 0.5513,0.0345 0.7813,0.0751 0.7741,0.1048 0.7661,0.136 0.3799,0.0801 0.3777,0.0885 0.3754,0.097 0.373,0.1056 0.3705,0.1145 0.3681,0.1236 0.3654,0.1328 0.3627,0.1421 0.3599,0.1518 0.3571,0.1615 0.4177,0.2008 0.4003,0.2019 0.3853,0.2038 0.3727,0.2065 0.3626,0.2102 0.3547,0.2147 0.6958,0.4467 0.6934,0.4754 0.7102,0.5112 1.5475,1.1582 0.5003,0.3797 0.4315,0.333 0.4012,0.3183 0.4096,0.3355 0.4564,0.385 0.5417,0.4665 1.4938,1.3056 0.3216,0.2867 0.319,0.2919 0.605,0.5671 0.518,0.4905 0.2105,0.1961 0.1695,0.1526 0.3161,0.278 0.3341,0.2979 0.3122,0.2822 0.2506,0.2307 0.1022,0.0941 0.0985,0.0877 0.0923,0.0795 0.0838,0.0695 0.073,0.0573 0.0596,0.0434 0.0242,0.0159 0.0199,0.0116 0.0154,0.0072 0.0107,0.0025 0.0269,-0.0109 0.0562,-0.0333 0.0855,-0.0563 0.1149,-0.0801 0.318,-0.234 0.2033,-0.1554 0.2329,-0.1818 0.2625,-0.209 0.2923,-0.2367 0.322,-0.2653 0.3517,-0.2944 0.3817,-0.3242 0.4115,-0.3547 0.4416,-0.386 0.4715,-0.4178 1.2616,-1.1063 1.3543,-1.1603 1.1473,-0.9601 0.4023,-0.3256 0.2381,-0.1802 0.8917,-0.6477 0.9111,-0.6239 0.9295,-0.5987 0.9468,-0.5723 0.9628,-0.5446 0.9779,-0.5156 0.9918,-0.4854 1.0046,-0.4539 0.276,-0.1077 0.2786,-0.1007 0.2811,-0.0939 0.2834,-0.0875 0.2853,-0.0813 0.2873,-0.0754 0.5792,-0.1342 0.5842,-0.114 0.5878,-0.0961 0.5897,-0.0803 0.59,-0.067 0.4807,-0.04 0.6001,-0.0337 0.6826,-0.0254 0.7285,-0.0148 0.7375,-0.0019 z"
     id="path1-5"
     transform="translate(-21.813796,-40.39099)" />
  <path
     style="display:inline;fill:none;fill-opacity:1;stroke:#000000;stroke-linecap:round;stroke-linejoin:round;stroke-opacity:1;stroke-width:0.1"
     d="m 191.2006,52.7749 -0.6451,0.0305 -0.2868,0.0224 -0.2568,0.0276 -0.5877,0.0805 -0.5767,0.093 -0.566,0.1063 -0.5559,0.1204 -0.546,0.1355 -0.5365,0.1515 -0.5276,0.1683 -0.5188,0.1861 -0.5105,0.2047 -0.5027,0.2243 -0.4951,0.2447 -0.4879,0.266 -0.4813,0.2882 -0.4748,0.3113 -0.4689,0.3353 -0.4632,0.3601 -0.5925,0.4961 -0.5694,0.5097 -0.5459,0.5228 -0.5217,0.5351 -0.4973,0.5468 -0.4722,0.5577 -0.4467,0.5681 -0.4207,0.5777 -0.3943,0.5865 -0.3674,0.5949 -0.3399,0.6024 -0.3121,0.6092 -0.2836,0.6155 -0.2548,0.6209 -0.2255,0.6258 -0.1957,0.6299 -0.1623,0.6062 -0.1499,0.6447 -0.1338,0.6773 -0.1139,0.7043 -0.0904,0.7254 -0.0353,0.3689 -0.028,0.3719 -0.0202,0.3744 -0.0121,0.3761 -0.003,0.3771 0.006,0.3773 0.0485,1.4915 0.0335,0.6599 0.0456,0.6284 0.0624,0.6165 0.0838,0.624 0.1096,0.6509 0.1402,0.6973 0.113,0.4819 0.1295,0.476 0.1452,0.4703 0.1603,0.4646 0.1747,0.4591 0.1886,0.4536 0.2016,0.4482 0.214,0.4428 0.2259,0.4376 0.237,0.4325 0.2474,0.4273 0.2573,0.4224 0.5414,0.8301 0.5727,0.8111 0.238,0.3153 0.2478,0.3095 0.2565,0.3034 0.2641,0.297 0.2705,0.2902 0.2757,0.2833 0.2798,0.2758 0.2828,0.2682 0.2847,0.2602 0.2853,0.2519 0.5681,0.4776 0.5571,0.4407 0.537,0.4011 0.3985,0.2819 0.3956,0.2645 0.3935,0.2477 0.3923,0.2316 0.3918,0.2162 0.3923,0.2015 0.3935,0.1874 0.3957,0.1741 0.3986,0.1613 0.4024,0.1494 0.407,0.138 0.4125,0.1273 0.4189,0.1173 0.426,0.1079 0.434,0.0994 0.4428,0.0913 0.2472,0.0428 0.2816,0.039 0.6483,0.0665 0.7318,0.0514 0.7789,0.0363 0.79,0.0212 0.7646,0.0062 0.7032,-0.0087 0.6056,-0.0237 0.7036,-0.0572 0.7708,-0.0933 0.8131,-0.1254 0.8302,-0.1536 0.8223,-0.1777 0.7893,-0.1978 0.7314,-0.2141 0.3361,-0.1118 0.3123,-0.1144 0.5912,-0.2359 0.5934,-0.2516 1.1858,-0.546 1.172,-0.595 1.1434,-0.6348 1.0999,-0.665 1.0414,-0.6859 0.4941,-0.3478 0.4739,-0.3496 0.4519,-0.35 0.4279,-0.3494 0.3079,-0.2493 0.303,-0.2548 0.5929,-0.5238 0.5785,-0.5396 0.5677,-0.5514 2.2342,-2.2442 1.7405,-1.7048 0.004,-9e-4 0.008,0.0026 0.0256,0.0152 0.0383,0.0279 0.0502,0.04 0.0614,0.0515 0.0719,0.0622 0.1724,0.1542 0.2059,0.1896 0.2335,0.2196 0.2554,0.2445 0.2717,0.2643 0.7641,0.7351 0.7228,0.6717 0.6715,0.6057 0.61,0.5373 0.9949,0.859 0.3648,0.3166 0.2627,0.2379 0.2633,0.2359 0.3284,0.2745 0.3708,0.2981 0.3904,0.3065 1.3022,1.0104 0.1582,0.1161 0.253,0.1728 0.3221,0.213 0.3657,0.2367 0.7586,0.4783 0.3415,0.2087 0.2821,0.1663 0.8393,0.4584 0.9127,0.4583 0.9585,0.4465 0.9766,0.4227 0.9671,0.3871 0.9301,0.3398 0.8654,0.2805 0.3998,0.1144 0.3733,0.0951 0.4621,0.102 0.4786,0.0915 0.4933,0.0808 0.5063,0.0701 0.5175,0.0595 0.5269,0.0489 1.0749,0.0655 1.0913,0.0226 1.0934,-0.0205 1.0814,-0.0638 0.5317,-0.0481 0.5234,-0.059 v 0 l 0.6714,-0.0992 0.627,-0.1136 0.5861,-0.1273 0.5488,-0.1407 0.5151,-0.1537 0.4848,-0.1662 0.4581,-0.1783 0.435,-0.1899 0.4153,-0.2011 0.3993,-0.2119 0.3868,-0.2222 0.3777,-0.232 0.7428,-0.492 0.7494,-0.5263 0.208,-0.1561 0.2238,-0.1824 0.2364,-0.2049 0.246,-0.2238 0.5084,-0.4893 0.5099,-0.5199 0.4868,-0.5207 0.4393,-0.4919 0.3671,-0.4331 0.2704,-0.3447 0.3616,-0.5018 0.3067,-0.4476 0.2615,-0.4051 0.2262,-0.3744 0.2005,-0.3552 0.1847,-0.3477 0.361,-0.7198 0.1898,-0.3909 0.1832,-0.3966 0.1778,-0.4147 0.0873,-0.218 0.0864,-0.2271 0.0856,-0.2379 0.0851,-0.2501 0.0847,-0.2639 0.0844,-0.2793 0.0843,-0.2962 0.0844,-0.3147 0.0845,-0.3347 0.085,-0.3563 0.1202,-0.5724 0.1028,-0.6018 0.0858,-0.6266 0.0688,-0.6465 0.0523,-0.6619 0.0359,-0.6725 0.0198,-0.6785 0.004,-0.6797 -0.0117,-0.6762 -0.0271,-0.6681 -0.0422,-0.6553 -0.0572,-0.6377 -0.0717,-0.6156 -0.0862,-0.5886 -0.1004,-0.557 -0.1142,-0.5207 -0.1126,-0.437 -0.125,-0.4326 -0.1372,-0.428 -0.1491,-0.4234 -0.1608,-0.4187 -0.172,-0.4139 -0.1832,-0.4091 -0.1939,-0.4042 -0.2045,-0.3993 -0.2147,-0.3942 -0.2246,-0.3891 -0.2344,-0.3839 -0.2437,-0.3787 -0.2528,-0.3734 -0.2617,-0.368 -0.2702,-0.3626 -0.3043,-0.3761 -0.3857,-0.4625 -0.4561,-0.5255 -0.5152,-0.5651 -0.2763,-0.29 -0.2868,-0.2912 -0.2961,-0.2894 -0.3038,-0.2847 -0.3103,-0.277 -0.3152,-0.2664 -0.3189,-0.2529 -0.321,-0.2365 -0.4631,-0.3173 -0.4647,-0.2986 -0.467,-0.2807 -0.4699,-0.2632 -0.4733,-0.2465 -0.4774,-0.2302 -0.4819,-0.2146 -0.4872,-0.1996 -0.493,-0.1853 -0.4993,-0.1714 -0.5063,-0.1583 -0.5139,-0.1456 -0.522,-0.1337 -0.5307,-0.1223 -0.54,-0.1115 -0.5499,-0.1013 -0.284,-0.0429 -0.3143,-0.0363 -0.7014,-0.0539 -0.768,-0.0317 -0.798,-0.0125 -0.7912,0.0038 -0.7479,0.0171 -0.6679,0.0273 -0.5513,0.0345 -0.7813,0.0751 -0.7741,0.1048 -0.7661,0.136 -0.3799,0.0801 -0.3777,0.0885 -0.3754,0.097 -0.373,0.1056 -0.3705,0.1145 -0.3681,0.1236 -0.3654,0.1328 -0.3627,0.1421 -0.3599,0.1518 -0.3571,0.1615 -0.4177,0.2008 -0.4003,0.2019 -0.3853,0.2038 -0.3727,0.2065 -0.3626,0.2102 -0.3547,0.2147 -0.6958,0.4467 -0.6934,0.4754 -0.7102,0.5112 -1.5475,1.1582 -0.5003,0.3797 -0.4315,0.333 -0.4012,0.3183 -0.4096,0.3355 -0.4564,0.385 -0.5417,0.4665 -1.4938,1.3056 -0.3216,0.2867 -0.319,0.2919 -0.605,0.5671 -0.518,0.4905 -0.2105,0.1961 -0.1695,0.1526 -0.3161,0.278 -0.3341,0.2979 -0.3122,0.2822 -0.2506,0.2307 -0.1022,0.0941 -0.0985,0.0877 -0.0923,0.0795 -0.0838,0.0695 -0.073,0.0573 -0.0596,0.0434 -0.0242,0.0159 -0.0199,0.0116 -0.0154,0.0072 -0.0107,0.0025 -0.0269,-0.0109 -0.0562,-0.0333 -0.0855,-0.0563 -0.1149,-0.0801 -0.318,-0.234 -0.2033,-0.1554 -0.2329,-0.1818 -0.2626,-0.209 -0.2922,-0.2367 -0.322,-0.2653 -0.3517,-0.2944 -0.3817,-0.3242 -0.4115,-0.3547 -0.4416,-0.386 -0.4715,-0.4178 -1.2616,-1.1063 -1.3543,-1.1603 -1.1473,-0.9601 -0.4023,-0.3256 -0.2381,-0.1802 -0.8917,-0.6477 -0.9111,-0.6239 -0.9295,-0.5987 -0.9468,-0.5723 -0.9628,-0.5446 -0.9779,-0.5156 -0.9918,-0.4854 -1.0046,-0.4539 -0.276,-0.1077 -0.2786,-0.1007 -0.2811,-0.0939 -0.2834,-0.0875 -0.2853,-0.0813 -0.2873,-0.0754 -0.5792,-0.1342 -0.5842,-0.114 -0.5878,-0.0961 -0.5897,-0.0803 -0.59,-0.067 -0.4807,-0.04 -0.6001,-0.0337 -0.6826,-0.0254 -0.7285,-0.0148 -0.7375,-0.0019 z"
     id="path1-3"
     transform="rotate(180,138.36507,80.297493)" />
  <metadata
     id="metadata140">
    <rdf:RDF>
      <cc:Work
         rdf:about="">
        <dc:title>SVG Image created as NeoInfinity-F_Paste.svg date 2024/12/14 19:27:52 </dc:title>
      </cc:Work>
    </rdf:RDF>
  </metadata>
</svg>
